999
dxflib 2.2.0.0
  0
SECTION
  2
HEADER
  9
$ACADVER
  1
AC1015
  9
$HANDSEED
  5
FFFF
  9
$GRIDUNIT
 10
0.0
 20
0.0
  9
$DIMASZ
 40
2.5
  9
$DIMADEC
 70
2
  9
$DIMGAP
 40
0.625
  9
$LUNITS
 70
2
  9
$AUPREC
 70
2
  9
$SPLINESEGS
 70
8
  9
$DIMEXO
 40
0.625
  9
$INSUNITS
 70
4
  9
$DIMLUNIT
 70
2
  9
$DIMTXT
 40
2.5
  9
$GRIDMODE
 70
1
  9
$LUPREC
 70
4
  9
$DIMSTYLE
  2
Standard
  9
$PLIMMAX
 10
279.3999999999999773
 20
215.9000000000000057
  9
$PLIMMIN
 10
0.0
 20
0.0
  9
$PINSBASE
 10
46.0749999999999886
 20
73.5750000000000028
 30
0.0
  9
$DIMEXE
 40
1.25
  9
$DIMAUNIT
 70
0
  9
$AUNITS
 70
0
  0
ENDSEC
  0
SECTION
  2
TABLES
  0
TABLE
  2
VPORT
  5
8
100
AcDbSymbolTable
 70
1
  0
VPORT
  5
30
100
AcDbSymbolTableRecord
100
AcDbViewportTableRecord
  2
*Active
 70
0
 10
0.0
 20
0.0
 11
1.0
 21
1.0
 12
286.3055555555554861
 22
148.5
 13
0.0
 23
0.0
 14
10.0
 24
10.0
 15
10.0
 25
10.0
 16
0.0
 26
0.0
 36
1.0
 17
0.0
 27
0.0
 37
0.0
 40
297.0
 41
1.92798353909465
 42
50.0
 43
0.0
 44
0.0
 50
0.0
 51
0.0
 71
0
 72
100
 73
1
 74
3
 75
1
 76
1
 77
0
 78
0
281
0
 65
1
110
0.0
120
0.0
130
0.0
111
1.0
121
0.0
131
0.0
112
0.0
122
1.0
132
0.0
 79
0
146
0.0
  0
ENDTAB
  0
TABLE
  2
LTYPE
  5
5
100
AcDbSymbolTable
 70
21
  0
LTYPE
  5
14
100
AcDbSymbolTableRecord
100
AcDbLinetypeTableRecord
  2
ByBlock
 70
0
  3

 72
65
 73
0
 40
0.0
  0
LTYPE
  5
15
100
AcDbSymbolTableRecord
100
AcDbLinetypeTableRecord
  2
ByLayer
 70
0
  3

 72
65
 73
0
 40
0.0
  0
LTYPE
  5
16
100
AcDbSymbolTableRecord
100
AcDbLinetypeTableRecord
  2
CONTINUOUS
 70
0
  3
Solid line
 72
65
 73
0
 40
0.0
  0
LTYPE
  5
31
100
AcDbSymbolTableRecord
100
AcDbLinetypeTableRecord
  2
DOT
 70
0
  3
Dot . . . . . . . . . . . . . . . . . . . . . .
 72
65
 73
2
 40
6.3499999999999996
 49
0.0
 74
0
 49
-6.3499999999999996
 74
0
  0
LTYPE
  5
32
100
AcDbSymbolTableRecord
100
AcDbLinetypeTableRecord
  2
DOT2
 70
0
  3
Dot (.5x) .....................................
 72
65
 73
2
 40
3.1749999999999998
 49
0.0
 74
0
 49
-3.1749999999999998
 74
0
  0
LTYPE
  5
33
100
AcDbSymbolTableRecord
100
AcDbLinetypeTableRecord
  2
DOTX2
 70
0
  3
Dot (2x) .  .  .  .  .  .  .  .  .  .  .  .  .
 72
65
 73
2
 40
12.6999999999999993
 49
0.0
 74
0
 49
-12.6999999999999993
 74
0
  0
LTYPE
  5
34
100
AcDbSymbolTableRecord
100
AcDbLinetypeTableRecord
  2
DASHED
 70
0
  3
Dashed __ __ __ __ __ __ __ __ __ __ __ __ __ _
 72
65
 73
2
 40
19.0500000000000007
 49
12.6999999999999993
 74
0
 49
-6.3499999999999996
 74
0
  0
LTYPE
  5
35
100
AcDbSymbolTableRecord
100
AcDbLinetypeTableRecord
  2
DASHED2
 70
0
  3
Dashed (.5x) _ _ _ _ _ _ _ _ _ _ _ _ _ _ _ _ _
 72
65
 73
2
 40
9.5250000000000004
 49
6.3499999999999996
 74
0
 49
-3.1749999999999998
 74
0
  0
LTYPE
  5
36
100
AcDbSymbolTableRecord
100
AcDbLinetypeTableRecord
  2
DASHEDX2
 70
0
  3
Dashed (2x) ____  ____  ____  ____  ____  ___
 72
65
 73
2
 40
38.1000000000000014
 49
25.3999999999999986
 74
0
 49
-12.6999999999999993
 74
0
  0
LTYPE
  5
37
100
AcDbSymbolTableRecord
100
AcDbLinetypeTableRecord
  2
DASHDOT
 70
0
  3
Dash dot __ . __ . __ . __ . __ . __ . __ . __
 72
65
 73
4
 40
25.3999999999999986
 49
12.6999999999999993
 74
0
 49
-6.3499999999999996
 74
0
 49
0.0
 74
0
 49
-6.3499999999999996
 74
0
  0
LTYPE
  5
38
100
AcDbSymbolTableRecord
100
AcDbLinetypeTableRecord
  2
DASHDOT2
 70
0
  3
Dash dot (.5x) _._._._._._._._._._._._._._._.
 72
65
 73
4
 40
12.6999999999999993
 49
6.3499999999999996
 74
0
 49
-3.1749999999999998
 74
0
 49
0.0
 74
0
 49
-3.1749999999999998
 74
0
  0
LTYPE
  5
39
100
AcDbSymbolTableRecord
100
AcDbLinetypeTableRecord
  2
DASHDOTX2
 70
0
  3
Dash dot (2x) ____  .  ____  .  ____  .  ___
 72
65
 73
4
 40
50.7999999999999972
 49
25.3999999999999986
 74
0
 49
-12.6999999999999993
 74
0
 49
0.0
 74
0
 49
-12.6999999999999993
 74
0
  0
LTYPE
  5
3A
100
AcDbSymbolTableRecord
100
AcDbLinetypeTableRecord
  2
DIVIDE
 70
0
  3
Divide ____ . . ____ . . ____ . . ____ . . ____
 72
65
 73
6
 40
31.75
 49
12.6999999999999993
 74
0
 49
-6.3499999999999996
 74
0
 49
0.0
 74
0
 49
-6.3499999999999996
 74
0
 49
0.0
 74
0
 49
-6.3499999999999996
 74
0
  0
LTYPE
  5
3B
100
AcDbSymbolTableRecord
100
AcDbLinetypeTableRecord
  2
DIVIDE2
 70
0
  3
Divide (.5x) __..__..__..__..__..__..__..__.._
 72
65
 73
6
 40
15.875
 49
6.3499999999999996
 74
0
 49
-3.1749999999999998
 74
0
 49
0.0
 74
0
 49
-3.1749999999999998
 74
0
 49
0.0
 74
0
 49
-3.1749999999999998
 74
0
  0
LTYPE
  5
3C
100
AcDbSymbolTableRecord
100
AcDbLinetypeTableRecord
  2
DIVIDEX2
 70
0
  3
Divide (2x) ________  .  .  ________  .  .  _
 72
65
 73
6
 40
63.5
 49
25.3999999999999986
 74
0
 49
-12.6999999999999993
 74
0
 49
0.0
 74
0
 49
-12.6999999999999993
 74
0
 49
0.0
 74
0
 49
-12.6999999999999993
 74
0
  0
LTYPE
  5
3D
100
AcDbSymbolTableRecord
100
AcDbLinetypeTableRecord
  2
CENTER
 70
0
  3
Center ____ _ ____ _ ____ _ ____ _ ____ _ ____
 72
65
 73
4
 40
50.7999999999999972
 49
31.75
 74
0
 49
-6.3499999999999996
 74
0
 49
6.3499999999999996
 74
0
 49
-6.3499999999999996
 74
0
  0
LTYPE
  5
3E
100
AcDbSymbolTableRecord
100
AcDbLinetypeTableRecord
  2
CENTER2
 70
0
  3
Center (.5x) ___ _ ___ _ ___ _ ___ _ ___ _ ___
 72
65
 73
4
 40
28.5749999999999993
 49
19.0500000000000007
 74
0
 49
-3.1749999999999998
 74
0
 49
3.1749999999999998
 74
0
 49
-3.1749999999999998
 74
0
  0
LTYPE
  5
3F
100
AcDbSymbolTableRecord
100
AcDbLinetypeTableRecord
  2
CENTERX2
 70
0
  3
Center (2x) ________  __  ________  __  _____
 72
65
 73
4
 40
101.5999999999999943
 49
63.5
 74
0
 49
-12.6999999999999993
 74
0
 49
12.6999999999999993
 74
0
 49
-12.6999999999999993
 74
0
  0
LTYPE
  5
40
100
AcDbSymbolTableRecord
100
AcDbLinetypeTableRecord
  2
BORDER
 70
0
  3
Border __ __ . __ __ . __ __ . __ __ . __ __ .
 72
65
 73
6
 40
44.4500000000000028
 49
12.6999999999999993
 74
0
 49
-6.3499999999999996
 74
0
 49
12.6999999999999993
 74
0
 49
-6.3499999999999996
 74
0
 49
0.0
 74
0
 49
-6.3499999999999996
 74
0
  0
LTYPE
  5
41
100
AcDbSymbolTableRecord
100
AcDbLinetypeTableRecord
  2
BORDER2
 70
0
  3
Border (.5x) __.__.__.__.__.__.__.__.__.__.__.
 72
65
 73
6
 40
22.2250000000000014
 49
6.3499999999999996
 74
0
 49
-3.1749999999999998
 74
0
 49
6.3499999999999996
 74
0
 49
-3.1749999999999998
 74
0
 49
0.0
 74
0
 49
-3.1749999999999998
 74
0
  0
LTYPE
  5
42
100
AcDbSymbolTableRecord
100
AcDbLinetypeTableRecord
  2
BORDERX2
 70
0
  3
Border (2x) ____  ____  .  ____  ____  .  ___
 72
65
 73
6
 40
88.9000000000000057
 49
25.3999999999999986
 74
0
 49
-12.6999999999999993
 74
0
 49
25.3999999999999986
 74
0
 49
-12.6999999999999993
 74
0
 49
0.0
 74
0
 49
-12.6999999999999993
 74
0
  0
ENDTAB
  0
TABLE
  2
LAYER
  5
2
100
AcDbSymbolTable
 70
1
  0
LAYER
  5
10
100
AcDbSymbolTableRecord
100
AcDbLayerTableRecord
  2
0
 70
0
 62
7
  6
CONTINUOUS
370
0
390
F
  0
ENDTAB
  0
TABLE
  2
STYLE
  5
3
100
AcDbSymbolTable
 70
1
  0
STYLE
  5
11
100
AcDbSymbolTableRecord
100
AcDbTextStyleTableRecord
  2
Standard
 70
0
 40
0.0
 41
0.75
 50
0.0
 71
0
 42
2.5
  3
txt
  4

  0
ENDTAB
  0
TABLE
  2
VIEW
  5
6
100
AcDbSymbolTable
 70
0
  0
ENDTAB
  0
TABLE
  2
UCS
  5
7
100
AcDbSymbolTable
 70
0
  0
ENDTAB
  0
TABLE
  2
APPID
  5
9
100
AcDbSymbolTable
 70
1
  0
APPID
  5
12
100
AcDbSymbolTableRecord
100
AcDbRegAppTableRecord
  2
ACAD
 70
0
  0
ENDTAB
  0
TABLE
  2
DIMSTYLE
  5
A
100
AcDbSymbolTable
 70
1
100
AcDbDimStyleTable
 71
0
  0
DIMSTYLE
105
27
100
AcDbSymbolTableRecord
100
AcDbDimStyleTableRecord
  2
Standard
 41
2.5
 42
0.625
 43
3.75
 44
1.25
 70
0
 73
0
 74
0
 77
1
 78
8
140
2.5
141
2.5
143
0.03937007874016
147
0.625
171
3
172
1
271
2
272
2
274
3
278
44
283
0
284
8
340
11
  0
ENDTAB
  0
TABLE
  2
BLOCK_RECORD
  5
1
100
AcDbSymbolTable
 70
1
  0
BLOCK_RECORD
  5
1F
100
AcDbSymbolTableRecord
100
AcDbBlockTableRecord
  2
*Model_Space
340
22
  0
BLOCK_RECORD
  5
1B
100
AcDbSymbolTableRecord
100
AcDbBlockTableRecord
  2
*Paper_Space
340
1E
  0
BLOCK_RECORD
  5
23
100
AcDbSymbolTableRecord
100
AcDbBlockTableRecord
  2
*Paper_Space0
340
26
  0
BLOCK_RECORD
  5
43
100
AcDbSymbolTableRecord
100
AcDbBlockTableRecord
  2
UF4007
340
0
  0
BLOCK_RECORD
  5
44
100
AcDbSymbolTableRecord
100
AcDbBlockTableRecord
  2
Turret
340
0
  0
BLOCK_RECORD
  5
45
100
AcDbSymbolTableRecord
100
AcDbBlockTableRecord
  2
Cap-47uF
340
0
  0
BLOCK_RECORD
  5
46
100
AcDbSymbolTableRecord
100
AcDbBlockTableRecord
  2
Resistor-1W
340
0
  0
ENDTAB
  0
ENDSEC
  0
SECTION
  2
BLOCKS
  0
BLOCK
  5
20
100
AcDbEntity
  8
0
100
AcDbBlockBegin
  2
*Model_Space
 70
0
 10
0.0
 20
0.0
 30
0.0
  3
*Model_Space
  1

  0
ENDBLK
  5
21
100
AcDbEntity
  8
0
100
AcDbBlockEnd
  0
BLOCK
  5
1C
100
AcDbEntity
 67
1
  8
0
100
AcDbBlockBegin
  2
*Paper_Space
 70
0
 10
0.0
 20
0.0
 30
0.0
  3
*Paper_Space
  1

  0
ENDBLK
  5
1D
100
AcDbEntity
 67
1
  8
0
100
AcDbBlockEnd
  0
BLOCK
  5
24
100
AcDbEntity
  8
0
100
AcDbBlockBegin
  2
*Paper_Space0
 70
0
 10
0.0
 20
0.0
 30
0.0
  3
*Paper_Space0
  1

  0
ENDBLK
  5
25
100
AcDbEntity
  8
0
100
AcDbBlockEnd
  0
BLOCK
  5
47
100
AcDbEntity
  8
0
100
AcDbBlockBegin
  2
UF4007
 70
0
 10
0.0
 20
0.0
 30
0.0
  3
UF4007
  1

  0
LINE
  5
48
100
AcDbEntity
100
AcDbLine
  8
0
 62
256
370
-1
  6
ByLayer
 10
-1.3500000000000001
 20
-2.4649999999999999
 30
0.0
 11
1.3500000000000001
 21
-2.4649999999999999
 31
0.0
  0
LINE
  5
49
100
AcDbEntity
100
AcDbLine
  8
0
 62
256
370
-1
  6
ByLayer
 10
1.3500000000000001
 20
-2.4649999999999999
 30
0.0
 11
1.3500000000000001
 21
2.4649999999999999
 31
0.0
  0
LINE
  5
4A
100
AcDbEntity
100
AcDbLine
  8
0
 62
256
370
-1
  6
ByLayer
 10
1.3500000000000001
 20
2.4649999999999999
 30
0.0
 11
-1.3500000000000001
 21
2.4649999999999999
 31
0.0
  0
LINE
  5
4B
100
AcDbEntity
100
AcDbLine
  8
0
 62
256
370
-1
  6
ByLayer
 10
-1.3500000000000001
 20
2.4649999999999999
 30
0.0
 11
-1.3500000000000001
 21
-2.4649999999999999
 31
0.0
  0
LINE
  5
4C
100
AcDbEntity
100
AcDbLine
  8
0
 62
256
370
-1
  6
ByLayer
 10
1.3500000000000001
 20
1.4649999999999999
 30
0.0
 11
-1.3500000000000001
 21
1.4649999999999999
 31
0.0
  0
ENDBLK
  5
4D
100
AcDbEntity
  8
0
100
AcDbBlockEnd
  0
BLOCK
  5
4E
100
AcDbEntity
  8
0
100
AcDbBlockBegin
  2
Turret
 70
0
 10
0.0
 20
0.0
 30
0.0
  3
Turret
  1

  0
CIRCLE
  5
4F
100
AcDbEntity
100
AcDbCircle
  8
0
 62
256
370
-1
  6
ByLayer
 10
0.0
 20
0.0
 30
0.0
 40
2.0
  0
CIRCLE
  5
50
100
AcDbEntity
100
AcDbCircle
  8
0
 62
256
370
-1
  6
ByLayer
 10
0.0
 20
0.0
 30
0.0
 40
1.5
  0
LINE
  5
51
100
AcDbEntity
100
AcDbLine
  8
0
 62
256
370
-1
  6
ByLayer
 10
-1.0606601717798214
 20
-1.0606601717798212
 30
0.0
 11
1.0606601717798214
 21
1.0606601717798212
 31
0.0
  0
LINE
  5
52
100
AcDbEntity
100
AcDbLine
  8
0
 62
256
370
-1
  6
ByLayer
 10
1.060660171779821
 20
-1.0606601717798214
 30
0.0
 11
-1.0606601717798212
 21
1.0606601717798214
 31
0.0
  0
ENDBLK
  5
53
100
AcDbEntity
  8
0
100
AcDbBlockEnd
  0
BLOCK
  5
54
100
AcDbEntity
  8
0
100
AcDbBlockBegin
  2
Cap-47uF
 70
0
 10
0.0
 20
0.0
 30
0.0
  3
Cap-47uF
  1

  0
LINE
  5
55
100
AcDbEntity
100
AcDbLine
  8
0
 62
256
370
-1
  6
ByLayer
 10
0.0
 20
0.0
 30
0.0
 11
27.0
 21
0.0
 31
0.0
  0
LINE
  5
56
100
AcDbEntity
100
AcDbLine
  8
0
 62
256
370
-1
  6
ByLayer
 10
27.0
 20
0.0
 30
0.0
 11
27.0
 21
16.1999999999999993
 31
0.0
  0
LINE
  5
57
100
AcDbEntity
100
AcDbLine
  8
0
 62
256
370
-1
  6
ByLayer
 10
27.0
 20
16.1999999999999993
 30
0.0
 11
0.0
 21
16.1999999999999993
 31
0.0
  0
LINE
  5
58
100
AcDbEntity
100
AcDbLine
  8
0
 62
256
370
-1
  6
ByLayer
 10
0.0
 20
16.1999999999999993
 30
0.0
 11
0.0
 21
0.0
 31
0.0
  0
LINE
  5
59
100
AcDbEntity
100
AcDbLine
  8
0
 62
256
370
-1
  6
ByLayer
 10
27.0
 20
3.7999999999999998
 30
0.0
 11
32.0
 21
3.7999999999999998
 31
0.0
  0
LINE
  5
5A
100
AcDbEntity
100
AcDbLine
  8
0
 62
256
370
-1
  6
ByLayer
 10
27.0
 20
12.4000000000000004
 30
0.0
 11
32.0
 21
12.4000000000000004
 31
0.0
  0
ENDBLK
  5
5B
100
AcDbEntity
  8
0
100
AcDbBlockEnd
  0
BLOCK
  5
5C
100
AcDbEntity
  8
0
100
AcDbBlockBegin
  2
Resistor-1W
 70
0
 10
0.0
 20
0.0
 30
0.0
  3
Resistor-1W
  1

  0
LINE
  5
5D
100
AcDbEntity
100
AcDbLine
  8
0
 62
256
370
-1
  6
ByLayer
 10
-1.25
 20
-3.5
 30
0.0
 11
1.25
 21
-3.5
 31
0.0
  0
LINE
  5
5E
100
AcDbEntity
100
AcDbLine
  8
0
 62
256
370
-1
  6
ByLayer
 10
1.25
 20
-3.5
 30
0.0
 11
1.25
 21
3.5
 31
0.0
  0
LINE
  5
5F
100
AcDbEntity
100
AcDbLine
  8
0
 62
256
370
-1
  6
ByLayer
 10
1.25
 20
3.5
 30
0.0
 11
-1.25
 21
3.5
 31
0.0
  0
LINE
  5
60
100
AcDbEntity
100
AcDbLine
  8
0
 62
256
370
-1
  6
ByLayer
 10
-1.25
 20
3.5
 30
0.0
 11
-1.25
 21
-3.5
 31
0.0
  0
ENDBLK
  5
61
100
AcDbEntity
  8
0
100
AcDbBlockEnd
  0
ENDSEC
  0
SECTION
  2
ENTITIES
  0
LINE
  5
62
100
AcDbEntity
100
AcDbLine
  8
0
 62
256
370
-1
  6
ByLayer
 10
0.0
 20
80.0
 30
0.0
 11
0.0
 21
0.0
 31
0.0
  0
LINE
  5
63
100
AcDbEntity
100
AcDbLine
  8
0
 62
256
370
-1
  6
ByLayer
 10
177.0
 20
0.0
 30
0.0
 11
177.0
 21
80.0
 31
0.0
  0
DIMENSION
  5
64
100
AcDbEntity
  8
0
 62
256
370
-1
  6
ByLayer
100
AcDbDimension
 10
187.0
 20
80.0
 30
0.0
 11
185.125
 21
40.0
 31
0.0
 70
0
 71
5
 72
1
 41
1.0
 42
0.0
  1

  3
Standard
100
AcDbAlignedDimension
 13
177.0
 23
0.0
 33
0.0
 14
177.0
 24
80.0
 34
0.0
 50
90.0
100
AcDbRotatedDimension
  0
LINE
  5
65
100
AcDbEntity
100
AcDbLine
  8
0
 62
256
370
-1
  6
ByLayer
 10
0.0
 20
0.0
 30
0.0
 11
177.0
 21
0.0
 31
0.0
  0
LINE
  5
66
100
AcDbEntity
100
AcDbLine
  8
0
 62
256
370
-1
  6
ByLayer
 10
177.0
 20
80.0
 30
0.0
 11
0.0
 21
80.0
 31
0.0
  0
DIMENSION
  5
67
100
AcDbEntity
  8
0
 62
256
370
-1
  6
ByLayer
100
AcDbDimension
 10
177.0
 20
-10.0
 30
0.0
 11
88.5
 21
-8.125
 31
0.0
 70
0
 71
5
 72
0
 41
1.0
 42
0.0
  1

  3
Standard
100
AcDbAlignedDimension
 13
0.0
 23
0.0
 33
0.0
 14
177.0
 24
0.0
 34
0.0
 50
0.0
100
AcDbRotatedDimension
  0
INSERT
  5
68
100
AcDbEntity
100
AcDbBlockReference
  8
0
 62
256
370
-1
  6
ByLayer
  2
Turret
 10
15.0
 20
10.0
 30
0.0
 44
1.0
 45
1.0
  0
INSERT
  5
69
100
AcDbEntity
100
AcDbBlockReference
  8
0
 62
256
370
-1
  6
ByLayer
  2
Turret
 10
15.0
 20
18.6000000000000014
 30
0.0
 44
1.0
 45
1.0
  0
CIRCLE
  5
6A
100
AcDbEntity
100
AcDbCircle
  8
0
 62
256
370
-1
  6
ByLayer
 10
15.0
 20
14.3000000000000007
 30
0.0
 40
8.0999999999999996
  0
INSERT
  5
6B
100
AcDbEntity
100
AcDbBlockReference
  8
0
 62
256
370
-1
  6
ByLayer
  2
Turret
 10
10.0
 20
70.0
 30
0.0
 44
1.0
 45
1.0
  0
INSERT
  5
6C
100
AcDbEntity
100
AcDbBlockReference
  8
0
 62
256
370
-1
  6
ByLayer
  2
Turret
 10
20.0
 20
70.0
 30
0.0
 44
1.0
 45
1.0
  0
INSERT
  5
6D
100
AcDbEntity
100
AcDbBlockReference
  8
0
 62
256
370
-1
  6
ByLayer
  2
Turret
 10
30.0
 20
70.0
 30
0.0
 44
1.0
 45
1.0
  0
INSERT
  5
6E
100
AcDbEntity
100
AcDbBlockReference
  8
0
 62
256
370
-1
  6
ByLayer
  2
Turret
 10
30.0
 20
10.0
 30
0.0
 44
1.0
 45
1.0
  0
INSERT
  5
6F
100
AcDbEntity
100
AcDbBlockReference
  8
0
 62
256
370
-1
  6
ByLayer
  2
Turret
 10
30.0
 20
40.0
 30
0.0
 44
1.0
 45
1.0
  0
INSERT
  5
70
100
AcDbEntity
100
AcDbBlockReference
  8
0
 62
256
370
-1
  6
ByLayer
  2
Resistor-1W
 10
30.0
 20
55.0
 30
0.0
 44
1.0
 45
1.0
  0
INSERT
  5
71
100
AcDbEntity
100
AcDbBlockReference
  8
0
 62
256
370
-1
  6
ByLayer
  2
Resistor-1W
 10
30.0
 20
25.0
 30
0.0
 44
1.0
 45
1.0
  0
LINE
  5
72
100
AcDbEntity
100
AcDbLine
  8
0
 62
256
370
-1
  6
ByLayer
 10
30.0
 20
58.5
 30
0.0
 11
30.0
 21
68.0000693456741061
 31
0.0
  0
LINE
  5
73
100
AcDbEntity
100
AcDbLine
  8
0
 62
256
370
-1
  6
ByLayer
 10
30.0
 20
51.5
 30
0.0
 11
30.0
 21
41.9998831346929649
 31
0.0
  0
LINE
  5
74
100
AcDbEntity
100
AcDbLine
  8
0
 62
256
370
-1
  6
ByLayer
 10
30.0
 20
28.5
 30
0.0
 11
30.0
 21
28.5
 31
0.0
  0
LINE
  5
75
100
AcDbEntity
100
AcDbLine
  8
0
 62
256
370
-1
  6
ByLayer
 10
30.0
 20
28.5
 30
0.0
 11
30.0
 21
38.001163347135666
 31
0.0
  0
LINE
  5
76
100
AcDbEntity
100
AcDbLine
  8
0
 62
256
370
-1
  6
ByLayer
 10
30.0
 20
21.5
 30
0.0
 11
30.0
 21
11.9999997776982195
 31
0.0
  0
LINE
  5
77
100
AcDbEntity
100
AcDbLine
  8
0
 62
256
370
-1
  6
ByLayer
 10
28.0041432630185767
 20
10.0
 30
0.0
 11
16.9996628079247003
 21
10.0
 31
0.0
  0
INSERT
  5
78
100
AcDbEntity
100
AcDbBlockReference
  8
0
 62
256
370
-1
  6
ByLayer
  2
Turret
 10
45.0
 20
10.0
 30
0.0
 44
1.0
 45
1.0
  0
INSERT
  5
79
100
AcDbEntity
100
AcDbBlockReference
  8
0
 62
256
370
-1
  6
ByLayer
  2
Turret
 10
45.0
 20
18.6000000000000014
 30
0.0
 44
1.0
 45
1.0
  0
CIRCLE
  5
7A
100
AcDbEntity
100
AcDbCircle
  8
0
 62
256
370
-1
  6
ByLayer
 10
45.0
 20
14.3000000000000007
 30
0.0
 40
8.0999999999999996
  0
LINE
  5
7B
100
AcDbEntity
100
AcDbLine
  8
0
 62
256
370
-1
  6
ByLayer
 10
32.0
 20
10.0
 30
0.0
 11
43.0
 21
10.0
 31
0.0
  0
INSERT
  5
7C
100
AcDbEntity
100
AcDbBlockReference
  8
0
 62
256
370
-1
  6
ByLayer
  2
UF4007
 10
36.0
 20
55.0
 30
0.0
 44
1.0
 45
1.0
  0
LINE
  5
7D
100
AcDbEntity
100
AcDbLine
  8
0
 62
256
370
-1
  6
ByLayer
 10
36.0
 20
57.4650000000000034
 30
0.0
 11
36.0
 21
64.0
 31
0.0
  0
LINE
  5
7E
100
AcDbEntity
100
AcDbLine
  8
0
 62
256
370
-1
  6
ByLayer
 10
36.0
 20
64.0
 30
0.0
 11
31.4142135623730958
 21
68.5857864376269077
 31
0.0
  0
LINE
  5
7F
100
AcDbEntity
100
AcDbLine
  8
0
 62
256
370
-1
  6
ByLayer
 10
36.0
 20
52.5349999999999966
 30
0.0
 11
36.0
 21
46.0
 31
0.0
  0
LINE
  5
80
100
AcDbEntity
100
AcDbLine
  8
0
 62
256
370
-1
  6
ByLayer
 10
36.0
 20
46.0
 30
0.0
 11
31.4142135623730958
 21
41.4142135623730923
 31
0.0
  0
LINE
  5
81
100
AcDbEntity
100
AcDbLine
  8
0
 62
256
370
-1
  6
ByLayer
 10
23.6527810356128505
 20
54.8020080960825169
 30
0.0
 11
23.6527810356128505
 21
54.8020080960825169
 31
0.0
  0
LINE
  5
82
100
AcDbEntity
100
AcDbLine
  8
0
 62
256
370
-1
  6
ByLayer
 10
23.6527810356128505
 20
54.8020080960825169
 30
0.0
 11
23.6527810356128505
 21
54.8020080960825169
 31
0.0
  0
INSERT
  5
83
100
AcDbEntity
100
AcDbBlockReference
  8
0
 62
256
370
-1
  6
ByLayer
  2
Turret
 10
15.0
 20
40.0
 30
0.0
 44
1.0
 45
1.0
  0
INSERT
  5
84
100
AcDbEntity
100
AcDbBlockReference
  8
0
 62
256
370
-1
  6
ByLayer
  2
UF4007
 10
12.5000000000000018
 20
54.7901994577490399
 30
0.0
 50
189.5940682268604576
 44
1.0
 45
1.0
  0
INSERT
  5
85
100
AcDbEntity
100
AcDbBlockReference
  8
0
 62
256
370
-1
  6
ByLayer
  2
UF4007
 10
17.5
 20
54.7901994577490399
 30
0.0
 50
170.4059317731395424
 44
1.0
 45
1.0
  0
LINE
  5
86
100
AcDbEntity
100
AcDbLine
  8
0
 62
256
370
-1
  6
ByLayer
 10
12.0891666666666691
 20
57.2207222353058
 30
0.0
 11
10.3226781059504944
 21
68.026201925236478
 31
0.0
  0
LINE
  5
87
100
AcDbEntity
100
AcDbLine
  8
0
 62
256
370
-1
  6
ByLayer
 10
19.6773218940495056
 20
68.026201925236478
 30
0.0
 11
17.9108333333333327
 21
57.2207222353058
 31
0.0
  0
LINE
  5
88
100
AcDbEntity
100
AcDbLine
  8
0
 62
256
370
-1
  6
ByLayer
 10
12.9108333333333345
 20
52.3596766801922797
 30
0.0
 11
14.6666666666666679
 21
41.9720265943665396
 31
0.0
  0
LINE
  5
89
100
AcDbEntity
100
AcDbLine
  8
0
 62
256
370
-1
  6
ByLayer
 10
15.3333333333333339
 20
41.9720265943665396
 30
0.0
 11
17.0891666666666637
 21
52.3596766801922797
 31
0.0
  0
LINE
  5
8A
100
AcDbEntity
100
AcDbLine
  8
0
 62
256
370
-1
  6
ByLayer
 10
15.8944271909999166
 20
41.7888543819998333
 30
0.0
 11
29.1055728090000798
 21
68.2111456180001596
 31
0.0
  0
LINE
  5
8B
100
AcDbEntity
100
AcDbLine
  8
0
 62
256
370
-1
  6
ByLayer
 10
31.1479517131665311
 20
38.3622555558824132
 30
0.0
 11
43.852048286833508
 21
20.2377444441175349
 31
0.0
  0
LINE
  5
8C
100
AcDbEntity
100
AcDbLine
  8
0
 62
256
370
-1
  6
ByLayer
 10
15.0
 20
20.6000000000000014
 30
0.0
 11
15.0
 21
38.0000000000000071
 31
0.0
  0
INSERT
  5
8D
100
AcDbEntity
100
AcDbBlockReference
  8
0
 62
256
370
-1
  6
ByLayer
  2
Turret
 10
57.5
 20
60.0
 30
0.0
 44
1.0
 45
1.0
  0
INSERT
  5
8E
100
AcDbEntity
100
AcDbBlockReference
  8
0
 62
256
370
-1
  6
ByLayer
  2
Turret
 10
55.0
 20
65.0
 30
0.0
 44
1.0
 45
1.0
  0
INSERT
  5
8F
100
AcDbEntity
100
AcDbBlockReference
  8
0
 62
256
370
-1
  6
ByLayer
  2
Turret
 10
50.0
 20
65.0
 30
0.0
 44
1.0
 45
1.0
  0
LINE
  5
90
100
AcDbEntity
100
AcDbLine
  8
0
 62
256
370
-1
  6
ByLayer
 10
50.0
 20
57.0
 30
0.0
 11
60.0
 21
57.0
 31
0.0
  0
LINE
  5
91
100
AcDbEntity
100
AcDbLine
  8
0
 62
256
370
-1
  6
ByLayer
 10
60.0
 20
57.0
 30
0.0
 11
60.0
 21
41.0
 31
0.0
  0
LINE
  5
92
100
AcDbEntity
100
AcDbLine
  8
0
 62
256
370
-1
  6
ByLayer
 10
60.0
 20
41.0
 30
0.0
 11
50.0
 21
41.0
 31
0.0
  0
LINE
  5
93
100
AcDbEntity
100
AcDbLine
  8
0
 62
256
370
-1
  6
ByLayer
 10
50.0
 20
41.0
 30
0.0
 11
50.0
 21
57.0
 31
0.0
  0
LINE
  5
94
100
AcDbEntity
100
AcDbLine
  8
0
 62
256
370
-1
  6
ByLayer
 10
54.6000000000000014
 20
57.0
 30
0.0
 11
54.6000000000000014
 21
63.0404082057734598
 31
0.0
  0
LINE
  5
95
100
AcDbEntity
100
AcDbLine
  8
0
 62
256
370
-1
  6
ByLayer
 10
52.1000000000000014
 20
57.0
 30
0.0
 11
52.1000000000000014
 21
58.0404082057734598
 31
0.0
  0
LINE
  5
96
100
AcDbEntity
100
AcDbLine
  8
0
 62
256
370
-1
  6
ByLayer
 10
52.8999999999999986
 20
57.0
 30
0.0
 11
52.8999999999999986
 21
58.0404082057734598
 31
0.0
  0
LINE
  5
97
100
AcDbEntity
100
AcDbLine
  8
0
 62
256
370
-1
  6
ByLayer
 10
57.1000000000000014
 20
57.0
 30
0.0
 11
57.1000000000000014
 21
58.0404082057734598
 31
0.0
  0
LINE
  5
98
100
AcDbEntity
100
AcDbLine
  8
0
 62
256
370
-1
  6
ByLayer
 10
57.8999999999999986
 20
57.0
 30
0.0
 11
57.8999999999999986
 21
58.0404082057734598
 31
0.0
  0
LINE
  5
99
100
AcDbEntity
100
AcDbLine
  8
0
 62
256
370
-1
  6
ByLayer
 10
55.3999999999999986
 20
57.0
 30
0.0
 11
55.3999999999999986
 21
63.0404082057734598
 31
0.0
  0
INSERT
  5
9A
100
AcDbEntity
100
AcDbBlockReference
  8
0
 62
256
370
-1
  6
ByLayer
  2
Turret
 10
52.5
 20
60.0
 30
0.0
 44
1.0
 45
1.0
  0
LINE
  5
9B
100
AcDbEntity
100
AcDbLine
  8
0
 62
256
370
-1
  6
ByLayer
 10
58.7971411923457197
 20
66.3871128253516218
 30
0.0
 11
58.3999999999999986
 21
67.0000000000000142
 31
0.0
  0
LINE
  5
9C
100
AcDbEntity
100
AcDbLine
  8
0
 62
256
370
-1
  6
ByLayer
 10
58.3999999999999986
 20
67.0000000000000142
 30
0.0
 11
56.6764101062194925
 21
66.0907103904176978
 31
0.0
  0
LINE
  5
9D
100
AcDbEntity
100
AcDbLine
  8
0
 62
256
370
-1
  6
ByLayer
 10
61.0353143560616758
 20
61.9944506611029595
 30
0.0
 11
61.3999999999999986
 21
61.2999999999999972
 31
0.0
  0
LINE
  5
9E
100
AcDbEntity
100
AcDbLine
  8
0
 62
256
370
-1
  6
ByLayer
 10
61.3999999999999986
 20
61.2999999999999972
 30
0.0
 11
59.4495307042157393
 21
60.4464639216331889
 31
0.0
  0
INSERT
  5
9F
100
AcDbEntity
100
AcDbBlockReference
  8
0
 62
256
370
-1
  6
ByLayer
  2
Resistor-1W
 10
55.0
 20
54.75
 30
0.0
 50
270.0
 44
1.0
 45
1.0
  0
LINE
  5
A0
100
AcDbEntity
100
AcDbLine
  8
0
 62
256
370
-1
  6
ByLayer
 10
58.5
 20
54.75
 30
0.0
 11
59.5
 21
55.0
 31
0.0
  0
LINE
  5
A1
100
AcDbEntity
100
AcDbLine
  8
0
 62
256
370
-1
  6
ByLayer
 10
59.5
 20
55.0
 30
0.0
 11
58.7479047060739816
 21
58.437075227479454
 31
0.0
  0
LINE
  5
A2
100
AcDbEntity
100
AcDbLine
  8
0
 62
256
370
-1
  6
ByLayer
 10
51.5
 20
54.75
 30
0.0
 11
50.5
 21
55.0
 31
0.0
  0
LINE
  5
A3
100
AcDbEntity
100
AcDbLine
  8
0
 62
256
370
-1
  6
ByLayer
 10
50.5
 20
55.0
 30
0.0
 11
51.2520952939260184
 21
58.437075227479454
 31
0.0
  0
MTEXT
  5
A4
100
AcDbEntity
100
AcDbMText
  8
0
 62
256
370
-1
  6
ByLayer
 10
12.0
 20
56.0
 30
0.0
 40
1.0
 41
100.0
 71
1
 72
2
  1
D1
  7
iso
 50
0.0
 73
0
 44
1.0
  0
MTEXT
  5
A5
100
AcDbEntity
100
AcDbMText
  8
0
 62
256
370
-1
  6
ByLayer
 10
17.0
 20
56.0
 30
0.0
 40
1.0
 41
100.0
 71
1
 72
2
  1
D2
  7
iso
 50
0.0
 73
0
 44
1.0
  0
MTEXT
  5
A6
100
AcDbEntity
100
AcDbMText
  8
0
 62
256
370
-1
  6
ByLayer
 10
36.0
 20
55.0
 30
0.0
 40
1.0
 41
100.0
 71
2
 72
2
  1
D3
  7
iso
 50
0.0
 73
0
 44
1.0
  0
MTEXT
  5
A7
100
AcDbEntity
100
AcDbMText
  8
0
 62
256
370
-1
  6
ByLayer
 10
30.0
 20
56.0
 30
0.0
 40
1.0
 41
100.0
 71
2
 72
2
  1
R1
  7
iso
 50
0.0
 73
0
 44
1.0
  0
MTEXT
  5
A8
100
AcDbEntity
100
AcDbMText
  8
0
 62
256
370
-1
  6
ByLayer
 10
29.8999999999999986
 20
25.5999999999999979
 30
0.0
 40
1.0
 41
100.0
 71
2
 72
2
  1
R5
  7
iso
 50
0.0
 73
0
 44
1.0
  0
MTEXT
  5
A9
100
AcDbEntity
100
AcDbMText
  8
0
 62
256
370
-1
  6
ByLayer
 10
10.0
 20
15.0
 30
0.0
 40
1.0
 41
100.0
 71
2
 72
2
  1
C0
  7
iso
 50
0.0
 73
0
 44
1.0
  0
MTEXT
  5
AA
100
AcDbEntity
100
AcDbMText
  8
0
 62
256
370
-1
  6
ByLayer
 10
40.0
 20
15.0
 30
0.0
 40
1.0
 41
100.0
 71
2
 72
2
  1
C1
  7
iso
 50
0.0
 73
0
 44
1.0
  0
MTEXT
  5
AB
100
AcDbEntity
100
AcDbMText
  8
0
 62
256
370
-1
  6
ByLayer
 10
55.0
 20
44.0
 30
0.0
 40
1.0
 41
100.0
 71
2
 72
2
  1
Q2
  7
iso
 50
0.0
 73
0
 44
1.0
  0
MTEXT
  5
AC
100
AcDbEntity
100
AcDbMText
  8
0
 62
256
370
-1
  6
ByLayer
 10
55.0
 20
55.2000000000000028
 30
0.0
 40
1.0
 41
100.0
 71
2
 72
2
  1
R4
  7
iso
 50
0.0
 73
0
 44
1.0
  0
MTEXT
  5
AD
100
AcDbEntity
100
AcDbMText
  8
0
 62
256
370
-1
  6
ByLayer
 10
59.8999999999999986
 20
65.0
 30
0.0
 40
1.0
 41
100.0
 71
2
 72
2
  1
D4
  7
iso
 50
0.0
 73
0
 44
1.0
  0
LINE
  5
AE
100
AcDbEntity
100
AcDbLine
  8
0
 62
256
370
-1
  6
ByLayer
 10
47.0
 20
57.0
 30
0.0
 11
49.4437976275275375
 21
59.5055644385428977
 31
0.0
  0
LINE
  5
AF
100
AcDbEntity
100
AcDbLine
  8
0
 62
256
370
-1
  6
ByLayer
 10
49.4437976275275375
 20
59.5055644385428977
 30
0.0
 11
46.1507700797283036
 21
62.7174127490076501
 31
0.0
  0
LINE
  5
B0
100
AcDbEntity
100
AcDbLine
  8
0
 62
256
370
-1
  6
ByLayer
 10
46.1507700797283036
 20
62.7174127490076501
 30
0.0
 11
43.7069724522007661
 21
60.2118483104647666
 31
0.0
  0
LINE
  5
B1
100
AcDbEntity
100
AcDbLine
  8
0
 62
256
370
-1
  6
ByLayer
 10
43.7069724522007661
 20
60.2118483104647666
 30
0.0
 11
47.0
 21
57.0
 31
0.0
  0
LINE
  5
B2
100
AcDbEntity
100
AcDbLine
  8
0
 62
256
370
-1
  6
ByLayer
 10
47.797283853627917
 20
61.1114885937752774
 30
0.0
 11
53.3732880736506985
 21
63.8364673151677451
 31
0.0
  0
LINE
  5
B3
100
AcDbEntity
100
AcDbLine
  8
0
 62
256
370
-1
  6
ByLayer
 10
48.7048864528129357
 20
60.2262600821844813
 30
0.0
 11
50.5257024223339357
 21
60.3196076889280093
 31
0.0
  0
LINE
  5
B4
100
AcDbEntity
100
AcDbLine
  8
0
 62
256
370
-1
  6
ByLayer
 10
48.7770225026943649
 20
63.4174937469052296
 30
0.0
 11
47.0448561586109477
 21
61.8453675504217983
 31
0.0
  0
MTEXT
  5
B5
100
AcDbEntity
100
AcDbMText
  8
0
 62
256
370
-1
  6
ByLayer
 10
47.0
 20
56.0
 30
0.0
 40
2.0
 41
100.0
 71
2
 72
2
  1
Q1E
  7
iso
 50
0.0
 73
0
 44
1.0
  0
MTEXT
  5
B6
100
AcDbEntity
100
AcDbMText
  8
0
 62
256
370
-1
  6
ByLayer
 10
46.1000000000000014
 20
68.7000000000000028
 30
0.0
 40
2.0
 41
100.0
 71
2
 72
2
  1
Q1B\P
  7
iso
 50
0.0
 73
0
 44
1.0
  0
MTEXT
  5
B7
100
AcDbEntity
100
AcDbMText
  8
0
 62
256
370
-1
  6
ByLayer
 10
54.7999999999999972
 20
70.3000000000000114
 30
0.0
 40
2.0
 41
100.0
 71
2
 72
2
  1
Q1C
  7
iso
 50
0.0
 73
0
 44
1.0
  0
MTEXT
  5
B8
100
AcDbEntity
100
AcDbMText
  8
0
 62
256
370
-1
  6
ByLayer
 10
55.0
 20
52.0
 30
0.0
 40
2.0
 41
100.0
 71
2
 72
2
  1
B C E
  7
iso
 50
0.0
 73
0
 44
1.0
  0
MTEXT
  5
B9
100
AcDbEntity
100
AcDbMText
  8
0
 62
256
370
-1
  6
ByLayer
 10
46.3999999999999986
 20
60.3000000000000043
 30
0.0
 40
1.0
 41
100.0
 71
2
 72
2
  1
Q1
  7
iso
 50
0.0
 73
0
 44
1.0
  0
LINE
  5
BA
100
AcDbEntity
100
AcDbLine
  8
0
 62
256
370
-1
  6
ByLayer
 10
32.0
 20
40.0
 30
0.0
 11
36.0
 21
40.0
 31
0.0
  0
LINE
  5
BB
100
AcDbEntity
100
AcDbLine
  8
0
 62
256
370
-1
  6
ByLayer
 10
41.0
 20
45.0
 30
0.0
 11
41.0
 21
55.0
 31
0.0
  0
LINE
  5
BC
100
AcDbEntity
100
AcDbLine
  8
0
 62
256
370
-1
  6
ByLayer
 10
41.0
 20
55.0
 30
0.0
 11
41.0
 21
61.0
 31
0.0
  0
LINE
  5
BD
100
AcDbEntity
100
AcDbLine
  8
0
 62
256
370
-1
  6
ByLayer
 10
41.0
 20
61.0
 30
0.0
 11
45.0
 21
65.0
 31
0.0
  0
LINE
  5
BE
100
AcDbEntity
100
AcDbLine
  8
0
 62
256
370
-1
  6
ByLayer
 10
45.0
 20
65.0
 30
0.0
 11
48.0
 21
65.0
 31
0.0
  0
LINE
  5
BF
100
AcDbEntity
100
AcDbLine
  8
0
 62
256
370
-1
  6
ByLayer
 10
36.0
 20
40.0
 30
0.0
 11
37.0
 21
40.0
 31
0.0
  0
LINE
  5
C0
100
AcDbEntity
100
AcDbLine
  8
0
 62
256
370
-1
  6
ByLayer
 10
37.0
 20
40.0
 30
0.0
 11
41.0
 21
44.0
 31
0.0
  0
LINE
  5
C1
100
AcDbEntity
100
AcDbLine
  8
0
 62
256
370
-1
  6
ByLayer
 10
41.0
 20
44.0
 30
0.0
 11
41.0
 21
45.0
 31
0.0
  0
LINE
  5
C2
100
AcDbEntity
100
AcDbLine
  8
0
 62
256
370
-1
  6
ByLayer
 10
50.0
 20
70.0
 30
0.0
 11
53.5858363452230009
 21
66.4142277260970104
 31
0.0
  0
LINE
  5
C3
100
AcDbEntity
100
AcDbLine
  8
0
 62
256
370
-1
  6
ByLayer
 10
32.0
 20
70.0
 30
0.0
 11
50.0
 21
70.0
 31
0.0
  0
INSERT
  5
C4
100
AcDbEntity
100
AcDbBlockReference
  8
0
 62
256
370
-1
  6
ByLayer
  2
UF4007
 10
59.9101714288055476
 20
64.1940686783334797
 30
0.0
 50
27.0
 44
1.0
 45
1.0
  0
INSERT
  5
C5
100
AcDbEntity
100
AcDbBlockReference
  8
0
 62
256
370
-1
  6
ByLayer
  2
Turret
 10
65.0
 20
70.0
 30
0.0
 44
1.0
 45
1.0
  0
INSERT
  5
C6
100
AcDbEntity
100
AcDbBlockReference
  8
0
 62
256
370
-1
  6
ByLayer
  2
Turret
 10
65.0
 20
25.0
 30
0.0
 44
1.0
 45
1.0
  0
INSERT
  5
C7
100
AcDbEntity
100
AcDbBlockReference
  8
0
 62
256
370
-1
  6
ByLayer
  2
Resistor-1W
 10
70.0
 20
18.0
 30
0.0
 44
1.0
 45
1.0
  0
LINE
  5
C8
100
AcDbEntity
100
AcDbLine
  8
0
 62
256
370
-1
  6
ByLayer
 10
70.0
 20
21.5
 30
0.0
 11
70.0
 21
23.0
 31
0.0
  0
LINE
  5
C9
100
AcDbEntity
100
AcDbLine
  8
0
 62
256
370
-1
  6
ByLayer
 10
70.0
 20
23.0
 30
0.0
 11
66.9133919664078292
 21
24.4178220350391442
 31
0.0
  0
LINE
  5
CA
100
AcDbEntity
100
AcDbLine
  8
0
 62
256
370
-1
  6
ByLayer
 10
70.0
 20
14.5
 30
0.0
 11
70.0
 21
13.0
 31
0.0
  0
LINE
  5
CB
100
AcDbEntity
100
AcDbLine
  8
0
 62
256
370
-1
  6
ByLayer
 10
70.0
 20
13.0
 30
0.0
 11
66.757230016222934
 21
10.9550616053873853
 31
0.0
  0
INSERT
  5
CC
100
AcDbEntity
100
AcDbBlockReference
  8
0
 62
256
370
-1
  6
ByLayer
  2
Resistor-1W
 10
60.0
 20
18.0
 30
0.0
 41
1.0
 42
-1.0
 43
1.0
 50
179.9999999999999716
 44
1.0
 45
1.0
  0
LINE
  5
CD
100
AcDbEntity
100
AcDbLine
  8
0
 62
256
370
-1
  6
ByLayer
 10
60.0
 20
21.5
 30
0.0
 11
60.0
 21
23.0
 31
0.0
  0
LINE
  5
CE
100
AcDbEntity
100
AcDbLine
  8
0
 62
256
370
-1
  6
ByLayer
 10
60.0
 20
23.0
 30
0.0
 11
63.0866080335921708
 21
24.4178220350391442
 31
0.0
  0
LINE
  5
CF
100
AcDbEntity
100
AcDbLine
  8
0
 62
256
370
-1
  6
ByLayer
 10
60.0
 20
14.4999999999999982
 30
0.0
 11
60.0
 21
13.0
 31
0.0
  0
LINE
  5
D0
100
AcDbEntity
100
AcDbLine
  8
0
 62
256
370
-1
  6
ByLayer
 10
60.0
 20
13.0
 30
0.0
 11
63.242769983777066
 21
10.9550616053873853
 31
0.0
  0
INSERT
  5
D1
100
AcDbEntity
100
AcDbBlockReference
  8
0
 62
256
370
-1
  6
ByLayer
  2
Resistor-1W
 10
65.0
 20
47.5
 30
0.0
 44
1.0
 45
1.0
  0
LINE
  5
D2
100
AcDbEntity
100
AcDbLine
  8
0
 62
256
370
-1
  6
ByLayer
 10
65.0
 20
51.0
 30
0.0
 11
65.0
 21
68.0023098093920311
 31
0.0
  0
LINE
  5
D3
100
AcDbEntity
100
AcDbLine
  8
0
 62
256
370
-1
  6
ByLayer
 10
65.0
 20
44.0
 30
0.0
 11
65.0
 21
26.9999992035165022
 31
0.0
  0
MTEXT
  5
D4
100
AcDbEntity
100
AcDbMText
  8
0
 62
256
370
-1
  6
ByLayer
 10
65.0
 20
47.3382021197575682
 30
0.0
 40
1.0
 41
100.0
 71
5
 72
2
  1
R6
  7
iso
 50
0.0
 73
0
 44
1.0
  0
MTEXT
  5
D5
100
AcDbEntity
100
AcDbMText
  8
0
 62
256
370
-1
  6
ByLayer
 10
60.0319636613976257
 20
17.9471328286324585
 30
0.0
 40
1.0
 41
100.0
 71
5
 72
2
  1
C4
  7
iso
 50
0.0
 73
0
 44
1.0
  0
MTEXT
  5
D6
100
AcDbEntity
100
AcDbMText
  8
0
 62
256
370
-1
  6
ByLayer
 10
69.9979009497676401
 20
17.904904280800384
 30
0.0
 40
1.0
 41
100.0
 71
5
 72
2
  1
R7
  7
iso
 50
0.0
 73
0
 44
1.0
  0
INSERT
  5
D7
100
AcDbEntity
100
AcDbBlockReference
  8
0
 62
256
370
-1
  6
ByLayer
  2
Turret
 10
65.0
 20
10.0
 30
0.0
 44
1.0
 45
1.0
  0
LINE
  5
D8
100
AcDbEntity
100
AcDbLine
  8
0
 62
256
370
-1
  6
ByLayer
 10
47.0
 20
10.0
 30
0.0
 11
63.0
 21
10.0
 31
0.0
  0
LINE
  5
D9
100
AcDbEntity
100
AcDbLine
  8
0
 62
256
370
-1
  6
ByLayer
 10
63.7625425399569892
 20
68.4287905821998521
 30
0.0
 11
61.0686935939503641
 21
64.8939714133498029
 31
0.0
  0
LINE
  5
DA
100
AcDbEntity
100
AcDbLine
  8
0
 62
256
370
-1
  6
ByLayer
 10
59.2438657384608192
 20
62.5281367188917869
 30
0.0
 11
58.5812542393168414
 21
61.6825246714266484
 31
0.0
  0
INSERT
  5
DB
100
AcDbEntity
100
AcDbBlockReference
  8
0
 62
256
370
-1
  6
ByLayer
  2
Turret
 10
85.0
 20
10.0
 30
0.0
 44
1.0
 45
1.0
  0
INSERT
  5
DC
100
AcDbEntity
100
AcDbBlockReference
  8
0
 62
256
370
-1
  6
ByLayer
  2
Turret
 10
85.0
 20
18.6000000000000014
 30
0.0
 44
1.0
 45
1.0
  0
CIRCLE
  5
DD
100
AcDbEntity
100
AcDbCircle
  8
0
 62
256
370
-1
  6
ByLayer
 10
85.0
 20
14.3000000000000007
 30
0.0
 40
8.0999999999999996
  0
INSERT
  5
DE
100
AcDbEntity
100
AcDbBlockReference
  8
0
 62
256
370
-1
  6
ByLayer
  2
Turret
 10
85.0
 20
70.0
 30
0.0
 44
1.0
 45
1.0
  0
LINE
  5
DF
100
AcDbEntity
100
AcDbLine
  8
0
 62
256
370
-1
  6
ByLayer
 10
85.0
 20
68.0
 30
0.0
 11
85.0
 21
20.6000000000000014
 31
0.0
  0
MTEXT
  5
E0
100
AcDbEntity
100
AcDbMText
  8
0
 62
256
370
-1
  6
ByLayer
 10
79.0862834644495365
 20
14.9881613920367549
 30
0.0
 40
1.0
 41
100.0
 71
1
 72
2
  1
C2
  7
iso
 50
0.0
 73
1
 44
1.0
  0
LINE
  5
E1
100
AcDbEntity
100
AcDbLine
  8
0
 62
256
370
-1
  6
ByLayer
 10
67.0
 20
10.0
 30
0.0
 11
83.0
 21
10.0
 31
0.0
  0
INSERT
  5
E2
100
AcDbEntity
100
AcDbBlockReference
  8
0
 62
256
370
-1
  6
ByLayer
  2
Resistor-1W
 10
75.0
 20
70.0
 30
0.0
 50
90.0
 44
1.0
 45
1.0
  0
MTEXT
  5
E3
100
AcDbEntity
100
AcDbMText
  8
0
 62
256
370
-1
  6
ByLayer
 10
74.2587378950060497
 20
70.5587932943525118
 30
0.0
 40
1.0
 41
100.0
 71
1
 72
2
  1
R2
  7
iso
 50
0.0
 73
1
 44
1.0
  0
LINE
  5
E4
100
AcDbEntity
100
AcDbLine
  8
0
 62
256
370
-1
  6
ByLayer
 10
71.5
 20
70.0
 30
0.0
 11
66.964590349793184
 21
70.0
 31
0.0
  0
LINE
  5
E5
100
AcDbEntity
100
AcDbLine
  8
0
 62
256
370
-1
  6
ByLayer
 10
78.5
 20
70.0
 30
0.0
 11
83.0003319440274936
 21
70.0
 31
0.0
  0
INSERT
  5
E6
100
AcDbEntity
100
AcDbBlockReference
  8
0
 62
256
370
-1
  6
ByLayer
  2
Resistor-1W
 10
95.0
 20
70.0
 30
0.0
 50
90.0
 44
1.0
 45
1.0
  0
LINE
  5
E7
100
AcDbEntity
100
AcDbLine
  8
0
 62
256
370
-1
  6
ByLayer
 10
91.5
 20
70.0
 30
0.0
 11
86.964590349793184
 21
70.0
 31
0.0
  0
MTEXT
  5
E8
100
AcDbEntity
100
AcDbMText
  8
0
 62
256
370
-1
  6
ByLayer
 10
94.2567804809775964
 20
70.5586479250073353
 30
0.0
 40
1.0
 41
100.0
 71
1
 72
2
  1
R3
  7
iso
 50
0.0
 73
1
 44
1.0
  0
INSERT
  5
E9
100
AcDbEntity
100
AcDbBlockReference
  8
0
 62
256
370
-1
  6
ByLayer
  2
Turret
 10
75.0
 20
40.0
 30
0.0
 44
1.0
 45
1.0
  0
INSERT
  5
EA
100
AcDbEntity
100
AcDbBlockReference
  8
0
 62
256
370
-1
  6
ByLayer
  2
Resistor-1W
 10
80.0
 20
30.0
 30
0.0
 50
27.7177476896095385
 44
1.0
 45
1.0
  0
LINE
  5
EB
100
AcDbEntity
100
AcDbLine
  8
0
 62
256
370
-1
  6
ByLayer
 10
78.3720930232558146
 20
33.098373585458603
 30
0.0
 11
75.8758993209675481
 21
38.2020010068054532
 31
0.0
  0
LINE
  5
EC
100
AcDbEntity
100
AcDbLine
  8
0
 62
256
370
-1
  6
ByLayer
 10
81.6279069767441854
 20
26.901626414541397
 30
0.0
 11
84.4553937384175128
 21
20.5244230355732995
 31
0.0
  0
MTEXT
  5
ED
100
AcDbEntity
100
AcDbMText
  8
0
 62
256
370
-1
  6
ByLayer
 10
78.870888549208118
 20
30.7615498613478238
 30
0.0
 40
1.0
 41
100.0
 71
1
 72
2
  1
R21
  7
iso
 50
0.0
 73
1
 44
1.0
  0
INSERT
  5
EE
100
AcDbEntity
100
AcDbBlockReference
  8
0
 62
256
370
-1
  6
ByLayer
  2
Turret
 10
100.0
 20
10.0
 30
0.0
 44
1.0
 45
1.0
  0
INSERT
  5
EF
100
AcDbEntity
100
AcDbBlockReference
  8
0
 62
256
370
-1
  6
ByLayer
  2
Turret
 10
110.0
 20
10.0
 30
0.0
 44
1.0
 45
1.0
  0
INSERT
  5
F0
100
AcDbEntity
100
AcDbBlockReference
  8
0
 62
256
370
-1
  6
ByLayer
  2
Turret
 10
110.0
 20
30.0
 30
0.0
 44
1.0
 45
1.0
  0
INSERT
  5
F1
100
AcDbEntity
100
AcDbBlockReference
  8
0
 62
256
370
-1
  6
ByLayer
  2
Turret
 10
100.0
 20
30.0
 30
0.0
 44
1.0
 45
1.0
  0
INSERT
  5
F2
100
AcDbEntity
100
AcDbBlockReference
  8
0
 62
256
370
-1
  6
ByLayer
  2
Turret
 10
125.0
 20
10.0
 30
0.0
 44
1.0
 45
1.0
  0
INSERT
  5
F3
100
AcDbEntity
100
AcDbBlockReference
  8
0
 62
256
370
-1
  6
ByLayer
  2
Turret
 10
125.0
 20
18.6000000000000014
 30
0.0
 44
1.0
 45
1.0
  0
CIRCLE
  5
F4
100
AcDbEntity
100
AcDbCircle
  8
0
 62
256
370
-1
  6
ByLayer
 10
125.0
 20
14.3000000000000007
 30
0.0
 40
8.0999999999999996
  0
MTEXT
  5
F5
100
AcDbEntity
100
AcDbMText
  8
0
 62
256
370
-1
  6
ByLayer
 10
119.0585118006231511
 20
14.9912141483726842
 30
0.0
 40
1.0
 41
100.0
 71
1
 72
2
  1
C3
  7
iso
 50
0.0
 73
1
 44
1.0
  0
LINE
  5
F6
100
AcDbEntity
100
AcDbLine
  8
0
 62
256
370
-1
  6
ByLayer
 10
87.0
 20
10.0
 30
0.0
 11
98.0
 21
10.0
 31
0.0
  0
LINE
  5
F7
100
AcDbEntity
100
AcDbLine
  8
0
 62
256
370
-1
  6
ByLayer
 10
102.0
 20
10.0
 30
0.0
 11
108.0
 21
10.0
 31
0.0
  0
LINE
  5
F8
100
AcDbEntity
100
AcDbLine
  8
0
 62
256
370
-1
  6
ByLayer
 10
112.0
 20
10.0
 30
0.0
 11
123.0
 21
10.0
 31
0.0
  0
LINE
  5
F9
100
AcDbEntity
100
AcDbLine
  8
0
 62
256
370
-1
  6
ByLayer
 10
102.0
 20
30.0
 30
0.0
 11
108.0
 21
30.0
 31
0.0
  0
LINE
  5
FA
100
AcDbEntity
100
AcDbLine
  8
0
 62
256
370
-1
  6
ByLayer
 10
100.0
 20
23.0
 30
0.0
 11
100.0
 21
28.0
 31
0.0
  0
LINE
  5
FB
100
AcDbEntity
100
AcDbLine
  8
0
 62
256
370
-1
  6
ByLayer
 10
110.0
 20
23.0
 30
0.0
 11
110.0
 21
28.0
 31
0.0
  0
LINE
  5
FC
100
AcDbEntity
100
AcDbLine
  8
0
 62
256
370
-1
  6
ByLayer
 10
100.0
 20
12.0
 30
0.0
 11
100.0
 21
16.0
 31
0.0
  0
LINE
  5
FD
100
AcDbEntity
100
AcDbLine
  8
0
 62
256
370
-1
  6
ByLayer
 10
110.0
 20
12.0
 30
0.0
 11
110.0
 21
16.0
 31
0.0
  0
INSERT
  5
FE
100
AcDbEntity
100
AcDbBlockReference
  8
0
 62
256
370
-1
  6
ByLayer
  2
Resistor-1W
 10
110.0
 20
19.5
 30
0.0
 44
1.0
 45
1.0
  0
INSERT
  5
FF
100
AcDbEntity
100
AcDbBlockReference
  8
0
 62
256
370
-1
  6
ByLayer
  2
Resistor-1W
 10
100.0
 20
19.5
 30
0.0
 41
1.0
 42
-1.0
 43
1.0
 50
179.9999999999999716
 44
1.0
 45
1.0
  0
MTEXT
  5
100
100
AcDbEntity
100
AcDbMText
  8
0
 62
256
370
-1
  6
ByLayer
 10
98.9676559573002663
 20
19.8747157270093631
 30
0.0
 40
1.0
 41
100.0
 71
1
 72
2
  1
R22
  7
iso
 50
0.0
 73
1
 44
1.0
  0
MTEXT
  5
101
100
AcDbEntity
100
AcDbMText
  8
0
 62
256
370
-1
  6
ByLayer
 10
109.0753685270364599
 20
19.9201436486710968
 30
0.0
 40
1.0
 41
100.0
 71
1
 72
2
  1
C20
  7
iso
 50
0.0
 73
1
 44
1.0
  0
INSERT
  5
102
100
AcDbEntity
100
AcDbBlockReference
  8
0
 62
256
370
-1
  6
ByLayer
  2
Turret
 10
115.0
 20
70.0
 30
0.0
 44
1.0
 45
1.0
  0
LINE
  5
103
100
AcDbEntity
100
AcDbLine
  8
0
 62
256
370
-1
  6
ByLayer
 10
98.5
 20
70.0
 30
0.0
 11
113.0
 21
70.0
 31
0.0
  0
LINE
  5
104
100
AcDbEntity
100
AcDbLine
  8
0
 62
256
370
-1
  6
ByLayer
 10
115.0
 20
68.0
 30
0.0
 11
115.0
 21
30.0
 31
0.0
  0
LINE
  5
105
100
AcDbEntity
100
AcDbLine
  8
0
 62
256
370
-1
  6
ByLayer
 10
115.0
 20
30.0
 30
0.0
 11
123.5578203244043607
 21
19.9856831467903717
 31
0.0
  0
INSERT
  5
106
100
AcDbEntity
100
AcDbBlockReference
  8
0
 62
256
370
-1
  6
ByLayer
  2
Resistor-1W
 10
125.0
 20
35.0
 30
0.0
 44
1.0
 45
1.0
  0
INSERT
  5
107
100
AcDbEntity
100
AcDbBlockReference
  8
0
 62
256
370
-1
  6
ByLayer
  2
Turret
 10
125.0
 20
50.0
 30
0.0
 44
1.0
 45
1.0
  0
MTEXT
  5
108
100
AcDbEntity
100
AcDbMText
  8
0
 62
256
370
-1
  6
ByLayer
 10
124.2392087777246417
 20
35.5428059081422418
 30
0.0
 40
1.0
 41
100.0
 71
1
 72
2
  1
R11
  7
iso
 50
0.0
 73
1
 44
1.0
  0
LINE
  5
109
100
AcDbEntity
100
AcDbLine
  8
0
 62
256
370
-1
  6
ByLayer
 10
125.0
 20
48.0
 30
0.0
 11
125.0
 21
38.5
 31
0.0
  0
LINE
  5
10A
100
AcDbEntity
100
AcDbLine
  8
0
 62
256
370
-1
  6
ByLayer
 10
125.0
 20
31.5
 30
0.0
 11
125.0
 21
20.5999985450642988
 31
0.0
  0
INSERT
  5
10B
100
AcDbEntity
100
AcDbBlockReference
  8
0
 62
256
370
-1
  6
ByLayer
  2
Turret
 10
145.0
 20
50.0
 30
0.0
 44
1.0
 45
1.0
  0
INSERT
  5
10C
100
AcDbEntity
100
AcDbBlockReference
  8
0
 62
256
370
-1
  6
ByLayer
  2
Turret
 10
145.0
 20
10.0
 30
0.0
 44
1.0
 45
1.0
  0
INSERT
  5
10D
100
AcDbEntity
100
AcDbBlockReference
  8
0
 62
256
370
-1
  6
ByLayer
  2
Turret
 10
145.0
 20
30.0
 30
0.0
 44
1.0
 45
1.0
  0
INSERT
  5
10E
100
AcDbEntity
100
AcDbBlockReference
  8
0
 62
256
370
-1
  6
ByLayer
  2
Resistor-1W
 10
145.0
 20
40.0
 30
0.0
 44
1.0
 45
1.0
  0
INSERT
  5
10F
100
AcDbEntity
100
AcDbBlockReference
  8
0
 62
256
370
-1
  6
ByLayer
  2
Resistor-1W
 10
145.0
 20
20.0
 30
0.0
 44
1.0
 45
1.0
  0
MTEXT
  5
110
100
AcDbEntity
100
AcDbMText
  8
0
 62
256
370
-1
  6
ByLayer
 10
144.5777329377320939
 20
38.3187181009030127
 30
0.0
 40
1.0
 41
100.0
 71
1
 72
2
  1
VR1A
  7
iso
 50
90.0
 73
1
 44
1.0
  0
MTEXT
  5
111
100
AcDbEntity
100
AcDbMText
  8
0
 62
256
370
-1
  6
ByLayer
 10
144.5777329377320939
 20
18.3552759643978263
 30
0.0
 40
1.0
 41
100.0
 71
1
 72
2
  1
VR1B
  7
iso
 50
90.0
 73
1
 44
1.0
  0
LINE
  5
112
100
AcDbEntity
100
AcDbLine
  8
0
 62
256
370
-1
  6
ByLayer
 10
145.0
 20
48.0
 30
0.0
 11
145.0
 21
43.5
 31
0.0
  0
LINE
  5
113
100
AcDbEntity
100
AcDbLine
  8
0
 62
256
370
-1
  6
ByLayer
 10
145.0
 20
36.5
 30
0.0
 11
145.0
 21
32.0
 31
0.0
  0
LINE
  5
114
100
AcDbEntity
100
AcDbLine
  8
0
 62
256
370
-1
  6
ByLayer
 10
145.0
 20
28.0
 30
0.0
 11
145.0
 21
23.5
 31
0.0
  0
LINE
  5
115
100
AcDbEntity
100
AcDbLine
  8
0
 62
256
370
-1
  6
ByLayer
 10
145.0
 20
16.5
 30
0.0
 11
145.0
 21
12.0
 31
0.0
  0
LINE
  5
116
100
AcDbEntity
100
AcDbLine
  8
0
 62
256
370
-1
  6
ByLayer
 10
143.0
 20
10.0
 30
0.0
 11
127.0
 21
10.0
 31
0.0
  0
INSERT
  5
117
100
AcDbEntity
100
AcDbBlockReference
  8
0
 62
256
370
-1
  6
ByLayer
  2
Resistor-1W
 10
135.0
 20
50.0
 30
0.0
 50
90.0
 44
1.0
 45
1.0
  0
MTEXT
  5
118
100
AcDbEntity
100
AcDbMText
  8
0
 62
256
370
-1
  6
ByLayer
 10
134.2632878338710327
 20
50.3795074184145264
 30
0.0
 40
1.0
 41
100.0
 71
1
 72
2
  1
C11
  7
iso
 50
0.0
 73
1
 44
1.0
  0
LINE
  5
119
100
AcDbEntity
100
AcDbLine
  8
0
 62
256
370
-1
  6
ByLayer
 10
127.0000000000000142
 20
50.0000000000000071
 30
0.0
 11
131.5
 21
50.0000000000000071
 31
0.0
  0
LINE
  5
11A
100
AcDbEntity
100
AcDbLine
  8
0
 62
256
370
-1
  6
ByLayer
 10
138.5000000000000284
 20
50.0000000000000071
 30
0.0
 11
143.0000000000000284
 21
50.0000000000000071
 31
0.0
  0
INSERT
  5
11B
100
AcDbEntity
100
AcDbBlockReference
  8
0
 62
256
370
-1
  6
ByLayer
  2
Turret
 10
155.0
 20
10.0
 30
0.0
 44
1.0
 45
1.0
  0
INSERT
  5
11C
100
AcDbEntity
100
AcDbBlockReference
  8
0
 62
256
370
-1
  6
ByLayer
  2
Turret
 10
165.0
 20
10.0
 30
0.0
 44
1.0
 45
1.0
  0
LINE
  5
11D
100
AcDbEntity
100
AcDbLine
  8
0
 62
256
370
-1
  6
ByLayer
 10
157.0
 20
10.0
 30
0.0
 11
163.0
 21
10.0
 31
0.0
  0
LINE
  5
11E
100
AcDbEntity
100
AcDbLine
  8
0
 62
256
370
-1
  6
ByLayer
 10
155.0
 20
12.0
 30
0.0
 11
155.0
 21
16.0
 31
0.0
  0
LINE
  5
11F
100
AcDbEntity
100
AcDbLine
  8
0
 62
256
370
-1
  6
ByLayer
 10
165.0
 20
12.0
 30
0.0
 11
165.0
 21
16.0
 31
0.0
  0
INSERT
  5
120
100
AcDbEntity
100
AcDbBlockReference
  8
0
 62
256
370
-1
  6
ByLayer
  2
Resistor-1W
 10
165.0
 20
19.5
 30
0.0
 44
1.0
 45
1.0
  0
INSERT
  5
121
100
AcDbEntity
100
AcDbBlockReference
  8
0
 62
256
370
-1
  6
ByLayer
  2
Resistor-1W
 10
155.0
 20
19.5
 30
0.0
 41
1.0
 42
-1.0
 43
1.0
 50
179.9999999999999716
 44
1.0
 45
1.0
  0
MTEXT
  5
122
100
AcDbEntity
100
AcDbMText
  8
0
 62
256
370
-1
  6
ByLayer
 10
154.1142242374414764
 20
19.9598930801255285
 30
0.0
 40
1.0
 41
100.0
 71
1
 72
2
  1
R12
  7
iso
 50
0.0
 73
1
 44
1.0
  0
MTEXT
  5
123
100
AcDbEntity
100
AcDbMText
  8
0
 62
256
370
-1
  6
ByLayer
 10
164.1367594540621155
 20
19.988285531164113
 30
0.0
 40
1.0
 41
100.0
 71
1
 72
2
  1
C10
  7
iso
 50
0.0
 73
1
 44
1.0
  0
INSERT
  5
124
100
AcDbEntity
100
AcDbBlockReference
  8
0
 62
256
370
-1
  6
ByLayer
  2
Turret
 10
165.0
 20
40.0
 30
0.0
 44
1.0
 45
1.0
  0
INSERT
  5
125
100
AcDbEntity
100
AcDbBlockReference
  8
0
 62
256
370
-1
  6
ByLayer
  2
Turret
 10
155.0
 20
40.0
 30
0.0
 44
1.0
 45
1.0
  0
LINE
  5
126
100
AcDbEntity
100
AcDbLine
  8
0
 62
256
370
-1
  6
ByLayer
 10
157.0
 20
40.0
 30
0.0
 11
163.0
 21
40.0
 31
0.0
  0
LINE
  5
127
100
AcDbEntity
100
AcDbLine
  8
0
 62
256
370
-1
  6
ByLayer
 10
155.0
 20
23.0
 30
0.0
 11
155.0
 21
38.0
 31
0.0
  0
LINE
  5
128
100
AcDbEntity
100
AcDbLine
  8
0
 62
256
370
-1
  6
ByLayer
 10
165.0
 20
23.0
 30
0.0
 11
165.0
 21
38.0
 31
0.0
  0
LINE
  5
129
100
AcDbEntity
100
AcDbLine
  8
0
 62
256
370
-1
  6
ByLayer
 10
147.0
 20
10.0
 30
0.0
 11
153.0
 21
10.0
 31
0.0
  0
ENDSEC
  0
SECTION
  2
OBJECTS
  0
DICTIONARY
  5
C
100
AcDbDictionary
280
0
281
1
  3
ACAD_GROUP
350
D
  3
ACAD_LAYOUT
350
1A
  3
ACAD_MLINESTYLE
350
17
  3
ACAD_PLOTSETTINGS
350
19
  3
ACAD_PLOTSTYLENAME
350
E
  3
AcDbVariableDictionary
350
12A
  0
DICTIONARY
  5
D
100
AcDbDictionary
280
0
281
1
  0
ACDBDICTIONARYWDFLT
  5
E
100
AcDbDictionary
281
1
  3
Normal
350
F
100
AcDbDictionaryWithDefault
340
F
  0
ACDBPLACEHOLDER
  5
F
  0
DICTIONARY
  5
17
100
AcDbDictionary
280
0
281
1
  3
Standard
350
18
  0
MLINESTYLE
  5
18
100
AcDbMlineStyle
  2
STANDARD
 70
0
  3

 62
256
 51
90.0
 52
90.0
 71
2
 49
0.5
 62
256
  6
BYLAYER
 49
-0.5
 62
256
  6
BYLAYER
  0
DICTIONARY
  5
19
100
AcDbDictionary
280
0
281
1
  0
DICTIONARY
  5
1A
100
AcDbDictionary
281
1
  3
Layout1
350
1E
  3
Layout2
350
26
  3
Model
350
22
  0
LAYOUT
  5
1E
100
AcDbPlotSettings
  1

  2
C:\Program Files\AutoCAD 2002\plotters\DWF ePlot (optimized for plotting).pc3
  4

  6

 40
0.0
 41
0.0
 42
0.0
 43
0.0
 44
0.0
 45
0.0
 46
0.0
 47
0.0
 48
0.0
 49
0.0
140
0.0
141
0.0
142
1.0
143
1.0
 70
688
 72
0
 73
0
 74
5
  7

 75
16
147
1.0
148
0.0
149
0.0
100
AcDbLayout
  1
Layout1
 70
1
 71
1
 10
0.0
 20
0.0
 11
420.0
 21
297.0
 12
0.0
 22
0.0
 32
0.0
 14
100000000000000000000.0
 24
100000000000000000000.0
 34
100000000000000000000.0
 15
-100000000000000000000.0
 25
-100000000000000000000.0
 35
-100000000000000000000.0
146
0.0
 13
0.0
 23
0.0
 33
0.0
 16
1.0
 26
0.0
 36
0.0
 17
0.0
 27
1.0
 37
0.0
 76
0
330
1B
  0
LAYOUT
  5
22
100
AcDbPlotSettings
  1

  2
C:\Program Files\AutoCAD 2002\plotters\DWF ePlot (optimized for plotting).pc3
  4

  6

 40
0.0
 41
0.0
 42
0.0
 43
0.0
 44
0.0
 45
0.0
 46
0.0
 47
0.0
 48
0.0
 49
0.0
140
0.0
141
0.0
142
1.0
143
1.0
 70
1712
 72
0
 73
0
 74
0
  7

 75
0
147
1.0
148
0.0
149
0.0
100
AcDbLayout
  1
Model
 70
1
 71
0
 10
0.0
 20
0.0
 11
12.0
 21
9.0
 12
0.0
 22
0.0
 32
0.0
 14
0.0
 24
0.0
 34
0.0
 15
0.0
 25
0.0
 35
0.0
146
0.0
 13
0.0
 23
0.0
 33
0.0
 16
1.0
 26
0.0
 36
0.0
 17
0.0
 27
1.0
 37
0.0
 76
0
330
1F
  0
LAYOUT
  5
26
100
AcDbPlotSettings
  1

  2
C:\Program Files\AutoCAD 2002\plotters\DWF ePlot (optimized for plotting).pc3
  4

  6

 40
0.0
 41
0.0
 42
0.0
 43
0.0
 44
0.0
 45
0.0
 46
0.0
 47
0.0
 48
0.0
 49
0.0
140
0.0
141
0.0
142
1.0
143
1.0
 70
688
 72
0
 73
0
 74
5
  7

 75
16
147
1.0
148
0.0
149
0.0
100
AcDbLayout
  1
Layout2
 70
1
 71
2
 10
0.0
 20
0.0
 11
12.0
 21
9.0
 12
0.0
 22
0.0
 32
0.0
 14
0.0
 24
0.0
 34
0.0
 15
0.0
 25
0.0
 35
0.0
146
0.0
 13
0.0
 23
0.0
 33
0.0
 16
1.0
 26
0.0
 36
0.0
 17
0.0
 27
1.0
 37
0.0
 76
0
330
23
  0
DICTIONARY
  5
12A
100
AcDbDictionary
281
1
  3
DIMASSOC
350
12C
  3
HIDETEXT
350
12B
  0
DICTIONARYVAR
  5
12B
100
DictionaryVariables
280
0
  1
2
  0
DICTIONARYVAR
  5
12C
100
DictionaryVariables
280
0
  1
1
  0
ENDSEC
  0
EOF
